<?xml version="1.0" encoding="UTF-8"?>
<svg version="1.1" xmlns="http://www.w3.org/2000/svg" width="500" height="500">
<path d="M0 0 C6.27 0 12.54 0 19 0 C20.8842542 5.02467787 22.64307833 9.88743171 24.1875 15 C24.53167969 16.134375 24.87585938 17.26875 25.23046875 18.4375 C25.48441406 19.283125 25.73835938 20.12875 26 21 C27.43473929 18.3197178 28.39715699 15.85250923 29.0703125 12.890625 C29.30645264 11.8701709 29.30645264 11.8701709 29.54736328 10.82910156 C29.7379834 9.97799805 29.92860352 9.12689453 30.125 8.25 C30.74375 5.5275 31.3625 2.805 32 0 C38.6 0 45.2 0 52 0 C51.30609397 4.85734222 50.53318302 9.57690878 49.5625 14.375 C49.43125732 15.02476807 49.30001465 15.67453613 49.16479492 16.34399414 C48.16930244 21.24352196 47.11168875 26.12567239 46 31 C46.99 31 47.98 31 49 31 C49.11214844 29.75347656 49.22429687 28.50695312 49.33984375 27.22265625 C49.9733089 21.52146987 51.24501322 16.01375355 52.5625 10.4375 C52.91344727 8.92446289 52.91344727 8.92446289 53.27148438 7.38085938 C53.84308715 4.91946783 54.4193354 2.45926653 55 0 C60.48095369 -0.02473355 65.96187483 -0.04287596 71.44287109 -0.05493164 C73.30713466 -0.05995792 75.1713943 -0.06677992 77.03564453 -0.07543945 C79.71648124 -0.08757963 82.3972658 -0.09324539 85.078125 -0.09765625 C85.91055725 -0.10281754 86.7429895 -0.10797882 87.60064697 -0.11329651 C88.38115417 -0.11337204 89.16166138 -0.11344757 89.96582031 -0.11352539 C90.64976868 -0.115746 91.33371704 -0.11796661 92.03839111 -0.12025452 C94.12821596 0.00786015 95.98847744 0.43274249 98 1 C98 1.66 98 2.32 98 3 C98.66 3 99.32 3 100 3 C100 3.66 100 4.32 100 5 C100.66 5 101.32 5 102 5 C104.60966616 13.10370018 102.04092419 22.97236486 100 31 C100.99 31 101.98 31 103 31 C103.07347656 30.1646875 103.07347656 30.1646875 103.1484375 29.3125 C103.7713129 22.95487521 104.97464406 17.07606782 107 11 C121.85 11 136.7 11 152 11 C151.67 12.98 151.34 14.96 151 17 C149.97845825 17.029729 149.97845825 17.029729 148.9362793 17.06005859 C145.85296083 17.15526983 142.77032351 17.26496466 139.6875 17.375 C138.61564453 17.4059375 137.54378906 17.436875 136.43945312 17.46875 C135.41142578 17.50742188 134.38339844 17.54609375 133.32421875 17.5859375 C131.9024231 17.63306885 131.9024231 17.63306885 130.4519043 17.68115234 C127.7469731 17.8489051 127.7469731 17.8489051 125 20 C124.01 23.63 123.02 27.26 122 31 C131.57 30.67 141.14 30.34 151 30 C152.27542561 24.12209227 152.27542561 24.12209227 153.54272461 18.24243164 C153.70264893 17.51403076 153.86257324 16.78562988 154.02734375 16.03515625 C154.18968506 15.2862915 154.35202637 14.53742676 154.51928711 13.76586914 C155 12 155 12 156 11 C157.5348297 10.90680551 159.07392082 10.882542 160.61157227 10.88647461 C161.59251358 10.88655014 162.5734549 10.88662567 163.5841217 10.88670349 C164.6507756 10.89186478 165.7174295 10.89702606 166.81640625 10.90234375 C168.44569313 10.90446617 168.44569313 10.90446617 170.1078949 10.90663147 C173.59279075 10.91224952 177.07762342 10.92480508 180.5625 10.9375 C182.91861887 10.94251267 185.27473874 10.94707598 187.63085938 10.95117188 C193.42059464 10.96222481 199.21029281 10.97898049 205 11 C204.85118576 12.42267078 204.69970222 13.84506248 204.54711914 15.26733398 C204.46305313 16.05945786 204.37898712 16.85158173 204.29237366 17.66770935 C203.89248907 20.85762423 203.19355636 23.93965853 202.4375 27.0625 C202.03337891 28.75052734 202.03337891 28.75052734 201.62109375 30.47265625 C201.31365234 31.72369141 201.31365234 31.72369141 201 33 C203.64 33 206.28 33 209 33 C209.25523437 32.18273437 209.51046875 31.36546875 209.7734375 30.5234375 C211.18986899 26.45458015 212.87528948 22.55880393 214.625 18.625 C215.73875 16.10875 216.8525 13.5925 218 11 C228.23 11 238.46 11 249 11 C249 18.59 249 26.18 249 34 C252.3 34 255.6 34 259 34 C259.103125 32.80375 259.20625 31.6075 259.3125 30.375 C260.14659864 23.85386516 261.62250089 17.4283292 263 11 C276.2 11 289.4 11 303 11 C302.67 12.98 302.34 14.96 302 17 C295.07 17 288.14 17 281 17 C280.67 19.64 280.34 22.28 280 25 C285.94 25 291.88 25 298 25 C297.06200604 31.56595772 295.65528178 37.59477919 294 44 C288.06 44.33 282.12 44.66 276 45 C275.71125 46.77375 275.4225 48.5475 275.125 50.375 C272.41346154 66.58653846 272.41346154 66.58653846 271 68 C269.5112814 68.08669432 268.018555 68.10703494 266.52734375 68.09765625 C265.62822266 68.09443359 264.72910156 68.09121094 263.80273438 68.08789062 C262.85720703 68.07951172 261.91167969 68.07113281 260.9375 68.0625 C259.5134082 68.05573242 259.5134082 68.05573242 258.06054688 68.04882812 C255.70696935 68.0370011 253.35351523 68.02052025 251 68 C252.54481946 57.88905721 254.7191505 47.96487644 257 38 C254.36 38 251.72 38 249 38 C249.0721875 38.825 249.144375 39.65 249.21875 40.5 C249.95749647 49.6932894 250.10772973 58.78312343 250 68 C247.02077407 68.02683987 244.04178705 68.04676037 241.0625 68.0625 C239.78729492 68.07506836 239.78729492 68.07506836 238.48632812 68.08789062 C237.67744141 68.09111328 236.86855469 68.09433594 236.03515625 68.09765625 C235.2862915 68.10289307 234.53742676 68.10812988 233.76586914 68.11352539 C232 68 232 68 231 67 C230.85806663 63.99668982 230.95763622 61.00782866 231 58 C226.38 58.33 221.76 58.66 217 59 C216.01 61.97 215.02 64.94 214 68 C200.8 68 187.6 68 174 68 C172.02 59.585 172.02 59.585 170 51 C169.67 50.67 169.34 50.34 169 50 C168.70996094 51.06927734 168.70996094 51.06927734 168.4140625 52.16015625 C168.15367187 53.11792969 167.89328125 54.07570313 167.625 55.0625 C167.36976563 56.00222656 167.11453125 56.94195312 166.8515625 57.91015625 C165.92295489 61.2795536 164.96015528 64.63945652 164 68 C157.4 68 150.8 68 144 68 C144.928125 63.235625 144.928125 63.235625 145.875 58.375 C146.16093018 56.8907251 146.16093018 56.8907251 146.45263672 55.37646484 C146.61006348 54.57934082 146.76749023 53.7822168 146.9296875 52.9609375 C147.16534424 51.75123291 147.16534424 51.75123291 147.40576172 50.51708984 C148.08766091 47.62868365 149.0614971 44.81550869 150 42 C140.1 42 130.2 42 120 42 C119.67 44.31 119.34 46.62 119 49 C127.25 49 135.5 49 144 49 C142.875 60.25 142.875 60.25 141.4375 64.125 C141.03337891 65.24261719 141.03337891 65.24261719 140.62109375 66.3828125 C140.41613281 66.91648437 140.21117187 67.45015625 140 68 C135.83741853 68.04969106 131.67499739 68.08585642 127.51220703 68.10986328 C126.09811391 68.11987856 124.68404127 68.13349474 123.27001953 68.15087891 C121.22944054 68.17532559 119.18913697 68.18652784 117.1484375 68.1953125 C115.92302246 68.20578613 114.69760742 68.21625977 113.43505859 68.22705078 C108.5539969 67.90442197 105.13021074 66.82882121 101.1875 63.9375 C97.41443782 58.8708165 97.71349018 53.53214984 98.4375 47.4375 C98.7159375 45.7359375 98.7159375 45.7359375 99 44 C98.34 43.67 97.68 43.34 97 43 C96.90203125 43.6290625 96.8040625 44.258125 96.703125 44.90625 C95.45440731 52.05408232 93.88093187 58.26311472 88.5 63.375 C81.68126402 67.80717839 75.15391601 68.15829546 67.09765625 68.09765625 C66.3750914 68.0962413 65.65252655 68.09482635 64.9080658 68.09336853 C62.62616635 68.08782225 60.34436921 68.0752802 58.0625 68.0625 C56.50455872 68.05747804 54.94661588 68.05291636 53.38867188 68.04882812 C49.59240919 68.0378705 45.79622187 68.02064372 42 68 C42.51098541 62.01286543 43.24053221 56.23763979 44.5625 50.375 C44.83191406 49.16585937 45.10132813 47.95671875 45.37890625 46.7109375 C45.58386719 45.81632812 45.78882813 44.92171875 46 44 C45.01 44.33 44.02 44.66 43 45 C42.12928959 47.1887525 42.12928959 47.1887525 41.6484375 49.875 C41.43703125 50.85984375 41.225625 51.8446875 41.0078125 52.859375 C40.79898438 53.89578125 40.59015625 54.9321875 40.375 56 C39.94825418 58.04228356 39.51871781 60.08398669 39.0859375 62.125 C38.9007959 63.03507812 38.7156543 63.94515625 38.52490234 64.8828125 C38 67 38 67 37 68 C34.13732433 68.07325168 31.299281 68.09238205 28.4375 68.0625 C27.63119141 68.05798828 26.82488281 68.05347656 25.99414062 68.04882812 C23.99606244 68.03700518 21.99802217 68.01906914 20 68 C15.13880349 56.47147073 15.13880349 56.47147073 13.25 51.3125 C12.3340358 48.19672875 12.3340358 48.19672875 11 47 C9.35 53.93 7.7 60.86 6 68 C-0.27 68 -6.54 68 -13 68 C-13 62.68653339 -12.751946 59.03976274 -11.609375 54.01953125 C-11.46471298 53.37280457 -11.32005096 52.72607788 -11.17100525 52.05975342 C-10.86267217 50.68455187 -10.55107206 49.31007925 -10.23641968 47.93630981 C-9.4153604 44.35139366 -8.61765579 40.76126033 -7.81640625 37.171875 C-7.65787674 36.46499039 -7.49934723 35.75810577 -7.33601379 35.02980042 C-5.86817502 28.46610825 -4.52755995 21.88050047 -3.24316406 15.27856445 C-2.24562752 10.16008589 -1.13250149 5.0962567 0 0 Z M72.3125 18.125 C70.58086156 20.59876921 70.26727055 22.71400024 69.8125 25.6875 C69.57466797 27.17830078 69.57466797 27.17830078 69.33203125 28.69921875 C69.22246094 29.45847656 69.11289063 30.21773437 69 31 C72.3 31 75.6 31 79 31 C79.50310058 29.2092015 80.00238628 27.41733089 80.5 25.625 C80.7784375 24.62726563 81.056875 23.62953125 81.34375 22.6015625 C82.08153015 20.12396724 82.08153015 20.12396724 82 18 C80.741875 17.773125 79.48375 17.54625 78.1875 17.3125 C77.47980469 17.18488281 76.77210938 17.05726563 76.04296875 16.92578125 C73.94569809 16.82327468 73.94569809 16.82327468 72.3125 18.125 Z M174 17 C173.67 20.3 173.34 23.6 173 27 C175.97 27 178.94 27 182 27 C182.66 23.7 183.32 20.4 184 17 C180.7 17 177.4 17 174 17 Z M230 26 C228.57055055 28.35438733 227.91338739 29.48032433 228.375 32.25 C228.58125 32.8275 228.7875 33.405 229 34 C229.66 34 230.32 34 231 34 C231 31.36 231 28.72 231 26 C230.67 26 230.34 26 230 26 Z M225 39 C224.67 39.99 224.34 40.98 224 42 C226.64 42 229.28 42 232 42 C231.67 41.01 231.34 40.02 231 39 C229.02 39 227.04 39 225 39 Z M189 44 C190.65 50.6 192.3 57.2 194 64 C194.66 64 195.32 64 196 64 C196.32613281 63.11957031 196.65226563 62.23914063 196.98828125 61.33203125 C197.42527344 60.17058594 197.86226562 59.00914062 198.3125 57.8125 C198.74175781 56.66394531 199.17101562 55.51539063 199.61328125 54.33203125 C200.86064375 51.33484756 202.30197418 48.75457522 204 46 C204.71143088 44.01548229 205.38991336 42.01797888 206 40 C204.66867968 39.88905664 203.3344432 39.81311556 202 39.75 C201.2575 39.70359375 200.515 39.6571875 199.75 39.609375 C195.93816404 40.002614 195.93816404 40.002614 189 44 Z M67 44 C66.67 45.65 66.34 47.3 66 49 C68.97 49 71.94 49 75 49 C75.66 47.35 76.32 45.7 77 44 C73.7 44 70.4 44 67 44 Z " fill="#DDCA09" transform="translate(128,202)"/>
<path d="M0 0 C14.85 0 29.7 0 45 0 C44.67 1.98 44.34 3.96 44 6 C42.97845825 6.029729 42.97845825 6.029729 41.9362793 6.06005859 C38.85296083 6.15526983 35.77032351 6.26496466 32.6875 6.375 C31.0797168 6.42140625 31.0797168 6.42140625 29.43945312 6.46875 C28.41142578 6.50742188 27.38339844 6.54609375 26.32421875 6.5859375 C24.9024231 6.63306885 24.9024231 6.63306885 23.4519043 6.68115234 C20.7469731 6.8489051 20.7469731 6.8489051 18 9 C17.01 12.63 16.02 16.26 15 20 C24.57 19.67 34.14 19.34 44 19 C45.27542561 13.12209227 45.27542561 13.12209227 46.54272461 7.24243164 C46.70264893 6.51403076 46.86257324 5.78562988 47.02734375 5.03515625 C47.18968506 4.2862915 47.35202637 3.53742676 47.51928711 2.76586914 C48 1 48 1 49 0 C50.5348297 -0.09319449 52.07392082 -0.117458 53.61157227 -0.11352539 C54.59251358 -0.11344986 55.5734549 -0.11337433 56.5841217 -0.11329651 C57.6507756 -0.10813522 58.7174295 -0.10297394 59.81640625 -0.09765625 C61.44569313 -0.09553383 61.44569313 -0.09553383 63.1078949 -0.09336853 C66.59279075 -0.08775048 70.07762342 -0.07519492 73.5625 -0.0625 C75.91861887 -0.05748733 78.27473874 -0.05292402 80.63085938 -0.04882812 C86.42059464 -0.03777519 92.21029281 -0.02101951 98 0 C97.85118576 1.42267078 97.69970222 2.84506248 97.54711914 4.26733398 C97.46305313 5.05945786 97.37898712 5.85158173 97.29237366 6.66770935 C96.89248907 9.85762423 96.19355636 12.93965853 95.4375 16.0625 C95.16808594 17.18785156 94.89867187 18.31320313 94.62109375 19.47265625 C94.41613281 20.30667969 94.21117187 21.14070313 94 22 C96.64 22 99.28 22 102 22 C102.38285156 20.77410156 102.38285156 20.77410156 102.7734375 19.5234375 C104.18986899 15.45458015 105.87528948 11.55880393 107.625 7.625 C108.73875 5.10875 109.8525 2.5925 111 0 C121.23 0 131.46 0 142 0 C142 7.59 142 15.18 142 23 C145.3 23 148.6 23 152 23 C152.1546875 21.205625 152.1546875 21.205625 152.3125 19.375 C153.14659864 12.85386516 154.62250089 6.4283292 156 0 C169.2 0 182.4 0 196 0 C195.67 1.98 195.34 3.96 195 6 C188.07 6 181.14 6 174 6 C173.67 8.64 173.34 11.28 173 14 C178.94 14 184.88 14 191 14 C190.06200604 20.56595772 188.65528178 26.59477919 187 33 C181.06 33.33 175.12 33.66 169 34 C168.71125 35.77375 168.4225 37.5475 168.125 39.375 C165.41346154 55.58653846 165.41346154 55.58653846 164 57 C162.5112814 57.08669432 161.018555 57.10703494 159.52734375 57.09765625 C158.62822266 57.09443359 157.72910156 57.09121094 156.80273438 57.08789062 C155.38444336 57.07532227 155.38444336 57.07532227 153.9375 57.0625 C152.5134082 57.05573242 152.5134082 57.05573242 151.06054688 57.04882812 C148.70696935 57.0370011 146.35351523 57.02052025 144 57 C145.54481946 46.88905721 147.7191505 36.96487644 150 27 C147.36 27 144.72 27 142 27 C142.0721875 27.825 142.144375 28.65 142.21875 29.5 C142.95749647 38.6932894 143.10772973 47.78312343 143 57 C140.02077407 57.02683987 137.04178705 57.04676037 134.0625 57.0625 C132.78729492 57.07506836 132.78729492 57.07506836 131.48632812 57.08789062 C130.67744141 57.09111328 129.86855469 57.09433594 129.03515625 57.09765625 C128.2862915 57.10289307 127.53742676 57.10812988 126.76586914 57.11352539 C125 57 125 57 124 56 C123.85806663 52.99668982 123.95763622 50.00782866 124 47 C119.38 47.33 114.76 47.66 110 48 C109.01 50.97 108.02 53.94 107 57 C93.8 57 80.6 57 67 57 C65.68 51.39 64.36 45.78 63 40 C62.67 39.67 62.34 39.34 62 39 C61.70996094 40.06927734 61.70996094 40.06927734 61.4140625 41.16015625 C61.15367187 42.11792969 60.89328125 43.07570313 60.625 44.0625 C60.24214844 45.47208984 60.24214844 45.47208984 59.8515625 46.91015625 C58.92295489 50.2795536 57.96015528 53.63945652 57 57 C50.4 57 43.8 57 37 57 C37.598125 53.885625 38.19625 50.77125 38.8125 47.5625 C38.99401611 46.60029541 39.17553223 45.63809082 39.36254883 44.64672852 C39.59494263 43.46228149 39.59494263 43.46228149 39.83203125 42.25390625 C39.98389893 41.46314697 40.1357666 40.6723877 40.29223633 39.85766602 C41.29106036 35.82481491 42.64628906 31.92575165 44 28 C45.15935059 27.97494385 46.31870117 27.9498877 47.51318359 27.92407227 C51.85572477 27.82918676 56.19813583 27.7291715 60.54052734 27.62768555 C62.41224095 27.58464097 64.28398619 27.54294762 66.15576172 27.50268555 C68.8617502 27.4442362 71.56758388 27.38076599 74.2734375 27.31640625 C75.50844498 27.29133751 75.50844498 27.29133751 76.7684021 27.26576233 C81.8138506 27.13998335 86.78630118 26.775135 91.80273438 26.21716309 C94.74980665 25.92589411 97.66540944 25.90308616 100.625 25.9375 C102.16027344 25.95103516 102.16027344 25.95103516 103.7265625 25.96484375 C104.85191406 25.98224609 104.85191406 25.98224609 106 26 C106 25.34 106 24.68 106 24 C68.38 23.34 30.76 22.68 -8 22 C-8 14 -8 14 -6 11 C-6.33 13.97 -6.66 16.94 -7 20 C-6.01 20 -5.02 20 -4 20 C-3.95101562 19.443125 -3.90203125 18.88625 -3.8515625 18.3125 C-3.2286871 11.95487521 -2.02535594 6.07606782 0 0 Z M67 6 C66.67 9.3 66.34 12.6 66 16 C68.97 16 71.94 16 75 16 C75.66 12.7 76.32 9.4 77 6 C73.7 6 70.4 6 67 6 Z M123 15 C121.57055055 17.35438733 120.91338739 18.48032433 121.375 21.25 C121.58125 21.8275 121.7875 22.405 122 23 C122.66 23 123.32 23 124 23 C124 20.36 124 17.72 124 15 C123.67 15 123.34 15 123 15 Z M118 28 C117.67 28.99 117.34 29.98 117 31 C119.64 31 122.28 31 125 31 C124.67 30.01 124.34 29.02 124 28 C122.02 28 120.04 28 118 28 Z M82 33 C83.65 39.6 85.3 46.2 87 53 C87.66 53 88.32 53 89 53 C89.32613281 52.11957031 89.65226562 51.23914063 89.98828125 50.33203125 C90.42527344 49.17058594 90.86226562 48.00914062 91.3125 46.8125 C91.74175781 45.66394531 92.17101562 44.51539063 92.61328125 43.33203125 C93.86064375 40.33484756 95.30197418 37.75457522 97 35 C97.71143088 33.01548229 98.38991336 31.01797888 99 29 C97.66867968 28.88905664 96.3344432 28.81311556 95 28.75 C94.2575 28.70359375 93.515 28.6571875 92.75 28.609375 C88.93816404 29.002614 88.93816404 29.002614 82 33 Z " fill="#BEB331" transform="translate(235,213)"/>
<path d="M0 0 C7.59 0 15.18 0 23 0 C26.28571429 17 26.28571429 17 27 25 C30.33557632 22.0094833 32.15083921 19.06815373 34 15 C34.66 15 35.32 15 36 15 C36.20625 14.195625 36.4125 13.39125 36.625 12.5625 C38.47085251 7.78006396 40.18753783 3.54323578 44 0 C48.17257534 -1.10988571 52.09466628 -0.85743466 56.375 -0.5625 C57.49261719 -0.52189453 58.61023438 -0.48128906 59.76171875 -0.43945312 C62.51228857 -0.33366198 65.25388611 -0.18606401 68 0 C67.12397991 6.91648417 65.73941116 13.72814825 64.375 20.5625 C64.2463858 21.20730316 64.11777161 21.85210632 63.98526001 22.51644897 C61.88851125 32.98797714 59.60646781 43.4108751 57.1875 53.8125 C57.03488708 54.47323517 56.88227417 55.13397034 56.72503662 55.81472778 C56.29383972 57.67570889 55.85607046 59.53516352 55.41796875 61.39453125 C55.16813232 62.45518799 54.9182959 63.51584473 54.66088867 64.60864258 C54 67 54 67 53 68 C51.5112814 68.08669432 50.018555 68.10703494 48.52734375 68.09765625 C47.62822266 68.09443359 46.72910156 68.09121094 45.80273438 68.08789062 C44.38444336 68.07532227 44.38444336 68.07532227 42.9375 68.0625 C41.98810547 68.05798828 41.03871094 68.05347656 40.06054688 68.04882812 C37.70696935 68.0370011 35.35351523 68.02052025 33 68 C33.20496094 66.91460937 33.40992188 65.82921875 33.62109375 64.7109375 C33.89326183 63.26563115 34.16539542 61.8203183 34.4375 60.375 C34.57220703 59.66214844 34.70691406 58.94929688 34.84570312 58.21484375 C35.61018271 54.15004987 36.33669637 50.08285925 37 46 C36.52433594 47.010625 36.04867187 48.02125 35.55859375 49.0625 C30.27859096 59.20413413 30.27859096 59.20413413 26.1015625 60.66308594 C21.67688789 61.24159943 17.39247004 60.72918475 13 60 C12.34 55.71 11.68 51.42 11 47 C9.35 53.93 7.7 60.86 6 68 C-0.93 68 -7.86 68 -15 68 C-14.04452158 61.31165106 -12.82268444 54.74598038 -11.5 48.125 C-11.27441406 46.97257812 -11.04882812 45.82015625 -10.81640625 44.6328125 C-10.59855469 43.5396875 -10.38070313 42.4465625 -10.15625 41.3203125 C-9.95837891 40.32273926 -9.76050781 39.32516602 -9.55664062 38.29736328 C-9 36 -9 36 -8 35 C-7.65934965 33.39466418 -7.36756509 31.77888877 -7.09765625 30.16015625 C-6.05869083 24.20656662 -4.78687581 18.32750538 -3.4375 12.4375 C-3.21642578 11.45458984 -2.99535156 10.47167969 -2.76757812 9.45898438 C-2.55423828 8.52248047 -2.34089844 7.58597656 -2.12109375 6.62109375 C-1.9295874 5.7798999 -1.73808105 4.93870605 -1.54077148 4.07202148 C-1 2 -1 2 0 0 Z " fill="#DDCA05" transform="translate(33,202)"/>
<path d="M0 0 C6.27 0 12.54 0 19 0 C20.8842542 5.02467787 22.64307833 9.88743171 24.1875 15 C24.53167969 16.134375 24.87585938 17.26875 25.23046875 18.4375 C25.48441406 19.283125 25.73835938 20.12875 26 21 C27.43473929 18.3197178 28.39715699 15.85250923 29.0703125 12.890625 C29.30645264 11.8701709 29.30645264 11.8701709 29.54736328 10.82910156 C29.7379834 9.97799805 29.92860352 9.12689453 30.125 8.25 C30.74375 5.5275 31.3625 2.805 32 0 C38.6 0 45.2 0 52 0 C51.30609397 4.85734222 50.53318302 9.57690878 49.5625 14.375 C49.43125732 15.02476807 49.30001465 15.67453613 49.16479492 16.34399414 C48.16930244 21.24352196 47.11168875 26.12567239 46 31 C46.99 31 47.98 31 49 31 C49.11214844 29.75347656 49.22429687 28.50695312 49.33984375 27.22265625 C49.97331749 21.52139261 51.24546046 16.01354302 52.5625 10.4375 C53.366875 6.993125 54.17125 3.54875 55 0 C67.87 0 80.74 0 94 0 C94.495 0.99 94.495 0.99 95 2 C82.46 2 69.92 2 57 2 C57 4.64 57 7.28 57 10 C56.34 10.99 55.68 11.98 55 13 C54.59509451 15.23822757 54.27138482 17.49169059 54 19.75 C53.35519217 24.69352671 52.57473891 29.27578326 51 34 C50.030625 33.979375 49.06125 33.95875 48.0625 33.9375 C45.12534105 33.64381501 45.12534105 33.64381501 44 35 C45.65 35.66 47.3 36.32 49 37 C49 37.33 49 37.66 49 38 C40.45469882 41.41812047 32.11408285 42.06706239 23 43 C29.27 43 35.54 43 42 43 C42 50.88105947 42 50.88105947 41.16015625 54.3671875 C40.8962207 55.47707031 40.8962207 55.47707031 40.62695312 56.609375 C40.44068359 57.35703125 40.25441406 58.1046875 40.0625 58.875 C39.88009766 59.64585937 39.69769531 60.41671875 39.50976562 61.2109375 C38.1429751 66.8570249 38.1429751 66.8570249 37 68 C34.13732433 68.07325168 31.299281 68.09238205 28.4375 68.0625 C27.63119141 68.05798828 26.82488281 68.05347656 25.99414062 68.04882812 C23.99606244 68.03700518 21.99802217 68.01906914 20 68 C15.13880349 56.47147073 15.13880349 56.47147073 13.25 51.3125 C12.3340358 48.19672875 12.3340358 48.19672875 11 47 C9.35 53.93 7.7 60.86 6 68 C-0.27 68 -6.54 68 -13 68 C-13 62.68653339 -12.751946 59.03976274 -11.609375 54.01953125 C-11.46471298 53.37280457 -11.32005096 52.72607788 -11.17100525 52.05975342 C-10.86267217 50.68455187 -10.55107206 49.31007925 -10.23641968 47.93630981 C-9.4153604 44.35139366 -8.61765579 40.76126033 -7.81640625 37.171875 C-7.65787674 36.46499039 -7.49934723 35.75810577 -7.33601379 35.02980042 C-5.86817502 28.46610825 -4.52755995 21.88050047 -3.24316406 15.27856445 C-2.24562752 10.16008589 -1.13250149 5.0962567 0 0 Z M48 35 C49.98 35.99 49.98 35.99 52 37 C50.68 36.67 49.36 36.34 48 36 C48 35.67 48 35.34 48 35 Z " fill="#DBC807" transform="translate(128,202)"/>
<path d="M0 0 C5.61 0 11.22 0 17 0 C17.83725278 10.04703341 18.11773625 19.92700932 18 30 C15.02077407 30.02683987 12.04178705 30.04676037 9.0625 30.0625 C7.78729492 30.07506836 7.78729492 30.07506836 6.48632812 30.08789062 C5.67744141 30.09111328 4.86855469 30.09433594 4.03515625 30.09765625 C3.2862915 30.10289307 2.53742676 30.10812988 1.76586914 30.11352539 C0 30 0 30 -1 29 C-1.14193337 25.99668982 -1.04236378 23.00782866 -1 20 C-5.62 20.33 -10.24 20.66 -15 21 C-15.99 23.97 -16.98 26.94 -18 30 C-31.2 30 -44.4 30 -58 30 C-59.32 24.39 -60.64 18.78 -62 13 C-62.33 12.67 -62.66 12.34 -63 12 C-63.29003906 13.06927734 -63.29003906 13.06927734 -63.5859375 14.16015625 C-63.84632813 15.11792969 -64.10671875 16.07570313 -64.375 17.0625 C-64.63023437 18.00222656 -64.88546875 18.94195312 -65.1484375 19.91015625 C-66.07704511 23.2795536 -67.03984472 26.63945652 -68 30 C-74.6 30 -81.2 30 -88 30 C-87.38125 26.844375 -86.7625 23.68875 -86.125 20.4375 C-85.93437988 19.4570874 -85.74375977 18.4766748 -85.54736328 17.46655273 C-84.57578044 12.56239634 -83.4565726 7.78306948 -82 3 C-67.98555763 2.14879743 -54.03921478 1.86911231 -40 2 C-40 2.99 -40 3.98 -40 5 C-40.66 5.66 -41.32 6.32 -42 7 C-41.48428894 9.72378426 -40.87772789 12.27957575 -40.125 14.9375 C-38 22.69032258 -38 22.69032258 -38 26 C-37.34 26 -36.68 26 -36 26 C-35.88398438 25.29746094 -35.76796875 24.59492188 -35.6484375 23.87109375 C-33.97406504 16.45745667 -30.41584014 6.41584014 -25 1 C-22.0906442 0.85482256 -19.280054 0.81369204 -16.375 0.875 C-15.17230469 0.88853516 -15.17230469 0.88853516 -13.9453125 0.90234375 C-11.96341477 0.92593777 -9.98167019 0.96180935 -8 1 C-8 1.99 -8 2.98 -8 4 C-5.36 4 -2.72 4 0 4 C0 2.68 0 1.36 0 0 Z " fill="#EFEFEC" transform="translate(360,240)"/>
<path d="M0 0 C13.2 0 26.4 0 40 0 C39.67 1.98 39.34 3.96 39 6 C32.07 6 25.14 6 18 6 C17.67 8.64 17.34 11.28 17 14 C22.94 14 28.88 14 35 14 C34.06200604 20.56595772 32.65528178 26.59477919 31 33 C25.06 33.33 19.12 33.66 13 34 C12.566875 36.660625 12.566875 36.660625 12.125 39.375 C9.41346154 55.58653846 9.41346154 55.58653846 8 57 C6.5112814 57.08669432 5.018555 57.10703494 3.52734375 57.09765625 C2.62822266 57.09443359 1.72910156 57.09121094 0.80273438 57.08789062 C-0.61555664 57.07532227 -0.61555664 57.07532227 -2.0625 57.0625 C-3.01189453 57.05798828 -3.96128906 57.05347656 -4.93945312 57.04882812 C-7.29303065 57.0370011 -9.64648477 57.02052025 -12 57 C-11.3533822 52.9964728 -10.6811736 48.99778437 -10 45 C-9.84402344 44.03707031 -9.68804687 43.07414062 -9.52734375 42.08203125 C-9.29724609 40.77298828 -9.29724609 40.77298828 -9.0625 39.4375 C-8.86333984 38.25994141 -8.86333984 38.25994141 -8.66015625 37.05859375 C-7.89550523 34.67414945 -6.84076881 33.65017149 -5 32 C-5 31.67 -5 31.34 -5 31 C-5 29.35 -5 27.7 -5 26 C-1.7 25.67 1.6 25.34 5 25 C2.36 24.67 -0.28 24.34 -3 24 C-3.53688687 15.37004066 -1.8902431 8.82113449 0 0 Z " fill="#E3E3E1" transform="translate(391,213)"/>
<path d="M0 0 C6.93 0 13.86 0 21 0 C19.72494673 8.77574349 18.15406722 17.3956366 16.21484375 26.046875 C15.82311729 27.81360565 15.82311729 27.81360565 15.42347717 29.61602783 C14.8767482 32.0768347 14.32793507 34.5371794 13.77709961 36.99707031 C12.93065728 40.78058628 12.09284718 44.56594504 11.25585938 48.3515625 C10.72186281 50.7501133 10.18737575 53.14855496 9.65234375 55.546875 C9.27576881 57.24973663 9.27576881 57.24973663 8.8915863 58.98699951 C8.65786819 60.02608459 8.42415009 61.06516968 8.18334961 62.13574219 C7.97842392 63.05361511 7.77349823 63.97148804 7.56236267 64.91717529 C7 67 7 67 6 68 C4.5112814 68.08669432 3.018555 68.10703494 1.52734375 68.09765625 C0.62822266 68.09443359 -0.27089844 68.09121094 -1.19726562 68.08789062 C-2.61555664 68.07532227 -2.61555664 68.07532227 -4.0625 68.0625 C-5.01189453 68.05798828 -5.96128906 68.05347656 -6.93945312 68.04882812 C-9.29303065 68.0370011 -11.64648477 68.02052025 -14 68 C-13.69401042 66.47005208 -13.38802083 64.94010417 -13.08203125 63.41015625 C-12.78208252 61.9099292 -12.78208252 61.9099292 -12.47607422 60.37939453 C-12.02898252 58.14459403 -11.58138095 55.90989549 -11.13330078 53.67529297 C-9.9637905 47.83916734 -8.80213817 42.00173563 -7.66015625 36.16015625 C-7.44447998 35.06372803 -7.22880371 33.9672998 -7.0065918 32.83764648 C-6.59730116 30.75575417 -6.19102318 28.6732664 -5.78833008 26.59008789 C-4.65929366 20.86852277 -3.31545834 15.27734055 -1.67041016 9.68115234 C-0.87603422 6.50422716 -0.46311741 3.24182187 0 0 Z " fill="#DBCA0D" transform="translate(104,202)"/>
<path d="M0 0 C15.84 0 31.68 0 48 0 C48 1.98 48 3.96 48 6 C47.67 6.33 47.34 6.66 47 7 C44.64305046 6.90968426 42.28846418 6.75311872 39.9375 6.5625 C38.64714844 6.46066406 37.35679687 6.35882813 36.02734375 6.25390625 C34.52880859 6.12822266 34.52880859 6.12822266 33 6 C32.89042969 6.73863281 32.78085937 7.47726563 32.66796875 8.23828125 C31.88598525 13.24170415 31.04069214 18.13404176 29.625 23 C27.84987667 29.17238315 26.65780496 35.44220033 25.44580078 41.74414062 C25.28708496 42.56462891 25.12836914 43.38511719 24.96484375 44.23046875 C24.8268335 44.95645264 24.68882324 45.68243652 24.54663086 46.43041992 C23.79256221 49.97511511 22.8789527 53.48418919 22 57 C15.4 57 8.8 57 2 57 C2 49.16489362 2 49.16489362 3.25 45.0625 C4.57991751 40.47679385 5.83530123 35.88036061 7 31.25 C7.25342163 30.2434436 7.25342163 30.2434436 7.51196289 29.21655273 C9.0113008 23.15357351 10.23044661 17.05070233 11.38671875 10.9140625 C12 8 12 8 13 6 C8.38 6 3.76 6 -1 6 C-0.67 4.02 -0.34 2.04 0 0 Z " fill="#E4E4E3" transform="translate(434,213)"/>
<path d="M0 0 C0 0.99 0 1.98 0 3 C-0.66 3.66 -1.32 4.32 -2 5 C-1.48428894 7.72378426 -0.87772789 10.27957575 -0.125 12.9375 C2 20.69032258 2 20.69032258 2 24 C2.66 24 3.32 24 4 24 C4.495 22.515 4.495 22.515 5 21 C5 22.32 5 23.64 5 25 C4.34 25 3.68 25 3 25 C3 25.66 3 26.32 3 27 C8.94 27 14.88 27 21 27 C21.33 26.34 21.66 25.68 22 25 C22 25.99 22 26.98 22 28 C8.8 28 -4.4 28 -18 28 C-19.32 22.39 -20.64 16.78 -22 11 C-22.33 10.67 -22.66 10.34 -23 10 C-23.29003906 11.06927734 -23.29003906 11.06927734 -23.5859375 12.16015625 C-23.84632813 13.11792969 -24.10671875 14.07570313 -24.375 15.0625 C-24.63023437 16.00222656 -24.88546875 16.94195312 -25.1484375 17.91015625 C-26.07704511 21.2795536 -27.03984472 24.63945652 -28 28 C-34.6 28 -41.2 28 -48 28 C-47.38125 24.844375 -46.7625 21.68875 -46.125 18.4375 C-45.93437988 17.4570874 -45.74375977 16.4766748 -45.54736328 15.46655273 C-44.57578044 10.56239634 -43.4565726 5.78306948 -42 1 C-27.98555763 0.14879743 -14.03921478 -0.13088769 0 0 Z " fill="#E1E1DA" transform="translate(320,242)"/>
<path d="M0 0 C6.27 0 12.54 0 19 0 C19 1.98 19 3.96 19 6 C20.43847561 5.96682761 21.8761407 5.89726123 23.3125 5.8125 C24.51326172 5.76029297 24.51326172 5.76029297 25.73828125 5.70703125 C26.48464844 5.47371094 27.23101562 5.24039063 28 5 C28.4021875 4.1646875 28.804375 3.329375 29.21875 2.46875 C31 0 31 0 32.91674805 -0.40942383 C35.35686151 -0.49258903 37.74910939 -0.43507957 40.1875 -0.3125 C41.03248047 -0.28994141 41.87746094 -0.26738281 42.74804688 -0.24414062 C44.83278798 -0.18524963 46.91661804 -0.09556798 49 0 C49.27154206 7.2928439 48.01430488 11.81402199 44 18 C41.4375 20.5 41.4375 20.5 39 22 C38.071875 22.5878125 38.071875 22.5878125 37.125 23.1875 C31.71012154 25.25789471 25.82174073 25.14074125 20.09765625 25.09765625 C19.3750914 25.0962413 18.65252655 25.09482635 17.9080658 25.09336853 C15.62616635 25.08782225 13.34436921 25.0752802 11.0625 25.0625 C9.50455872 25.05747804 7.94661588 25.05291636 6.38867188 25.04882812 C2.59240919 25.0378705 -1.20377813 25.02064372 -5 25 C-4.52069748 19.74250941 -4.04529664 14.54471765 -2.9375 9.375 C-2.76089844 8.53710938 -2.58429688 7.69921875 -2.40234375 6.8359375 C-2.20318359 5.92714844 -2.20318359 5.92714844 -2 5 C-1.34 5 -0.68 5 0 5 C0 3.35 0 1.7 0 0 Z " fill="#E6E6E1" transform="translate(175,245)"/>
<path d="M0 0 C0.86825912 0.00222061 1.73651825 0.00444122 2.63108826 0.00672913 C3.61202957 0.00680466 4.59297089 0.00688019 5.6036377 0.00695801 C6.6702916 0.01211929 7.7369455 0.01728058 8.83592224 0.02259827 C9.92211349 0.02401321 11.00830475 0.02542816 12.12741089 0.02688599 C15.61230674 0.03250403 19.09713941 0.04505959 22.58201599 0.05775452 C24.93813486 0.06276719 27.29425473 0.0673305 29.65037537 0.07142639 C35.44011063 0.08247933 41.2298088 0.09923501 47.01951599 0.12025452 C46.86259798 1.56394486 46.70469378 3.00752804 46.54637146 4.45106506 C46.45854401 5.25497177 46.37071655 6.05887848 46.28022766 6.887146 C46.00276583 9.26372692 45.63966931 11.59163488 45.14451599 13.93275452 C45.00271912 14.64044983 44.86092224 15.34814514 44.71482849 16.07728577 C43.82877834 18.68068031 42.95919106 20.14373248 41.01951599 22.12025452 C38.08714294 22.59022522 38.08714294 22.59022522 34.50779724 22.54603577 C33.19883484 22.53830139 31.88987244 22.53056702 30.54124451 22.52259827 C29.13815287 22.49338386 27.73507658 22.46342383 26.33201599 22.43275452 C24.91658498 22.41582883 23.50113783 22.4002036 22.0856781 22.38587952 C12.71373239 22.26928625 3.35658443 21.96770319 -5.98048401 21.12025452 C-4.49976037 0.27322438 -4.49976037 0.27322438 0 0 Z M16.01951599 6.12025452 C15.68951599 9.42025452 15.35951599 12.72025452 15.01951599 16.12025452 C17.98951599 16.12025452 20.95951599 16.12025452 24.01951599 16.12025452 C24.67951599 12.82025452 25.33951599 9.52025452 26.01951599 6.12025452 C22.71951599 6.12025452 19.41951599 6.12025452 16.01951599 6.12025452 Z " fill="#E5E5DF" transform="translate(285.98048400878906,212.87974548339844)"/>
<path d="M0 0 C5.94 0 11.88 0 18 0 C18 2.31 18 4.62 18 7 C26.25 7 34.5 7 43 7 C41.875 18.25 41.875 18.25 40.4375 22.125 C40.16808594 22.87007813 39.89867187 23.61515625 39.62109375 24.3828125 C39.41613281 24.91648437 39.21117187 25.45015625 39 26 C34.83741853 26.04969106 30.67499739 26.08585642 26.51220703 26.10986328 C25.09811391 26.11987856 23.68404127 26.13349474 22.27001953 26.15087891 C20.22944054 26.17532559 18.18913697 26.18652784 16.1484375 26.1953125 C14.92302246 26.20578613 13.69760742 26.21625977 12.43505859 26.22705078 C7.5539969 25.90442197 4.13021074 24.82882121 0.1875 21.9375 C-3.58556218 16.8708165 -3.28650982 11.53214984 -2.5625 5.4375 C-2.376875 4.303125 -2.19125 3.16875 -2 2 C-1.34 2 -0.68 2 0 2 C0 1.34 0 0.68 0 0 Z " fill="#E3E3E1" transform="translate(229,244)"/>
<path d="M0 0 C10.23 0 20.46 0 31 0 C31 7.59 31 15.18 31 23 C25.39 23 19.78 23 14 23 C13.67 20.69 13.34 18.38 13 16 C11.10786631 18.38573379 9.97608217 20.07175348 9 23 C3.22240116 23.12036664 -2.27959989 22.8320582 -8 22 C-6.37716364 13.88581819 -3.44293343 8.03351134 0 0 Z " fill="#E6E6E3" transform="translate(346,213)"/>
<path d="M0 0 C1.06472031 -0.00310684 2.12944061 -0.00621368 3.22642517 -0.00941467 C4.4001619 -0.00743576 5.57389862 -0.00545685 6.78320312 -0.00341797 C8.00435318 -0.00478256 9.22550323 -0.00614716 10.48365784 -0.0075531 C13.81798228 -0.00924556 17.15221712 -0.00593996 20.4865303 0.0006218 C22.55709136 0.00438117 24.62764793 0.0064561 26.69821167 0.00808716 C45.84408605 0.02587535 64.9844053 0.18763463 84.12695312 0.56689453 C85.17383301 0.58645203 86.22071289 0.60600952 87.29931641 0.62615967 C90.23290532 0.68269552 93.16623682 0.74624644 96.09960938 0.81298828 C96.95720352 0.82971085 97.81479767 0.84643341 98.69837952 0.86366272 C102.30196372 0.95505488 105.5930335 1.16356345 109.06445312 2.12939453 C109.06445312 2.78939453 109.06445312 3.44939453 109.06445312 4.12939453 C89.11445499 6.43821454 69.12298486 6.74563354 49.06445312 7.12939453 C49.06445312 7.45939453 49.06445312 7.78939453 49.06445312 8.12939453 C30.58445312 8.12939453 12.10445312 8.12939453 -6.93554688 8.12939453 C-5.7749078 0.00492102 -5.7749078 0.00492102 0 0 Z " fill="#E3D009" transform="translate(231.935546875,234.87060546875)"/>
<path d="M0 0 C0.23030062 5.60150551 -0.58588898 10.44984848 -1.9375 15.875 C-2.11990234 16.64585937 -2.30230469 17.41671875 -2.49023438 18.2109375 C-3.8570249 23.8570249 -3.8570249 23.8570249 -5 25 C-7.86267567 25.07325168 -10.700719 25.09238205 -13.5625 25.0625 C-14.36880859 25.05798828 -15.17511719 25.05347656 -16.00585938 25.04882812 C-18.00393756 25.03700518 -20.00197783 25.01906914 -22 25 C-30 6.02766798 -30 6.02766798 -30 1 C-26.87522287 0.82897872 -23.75015208 0.66401507 -20.625 0.5 C-19.75488281 0.45230469 -18.88476562 0.40460938 -17.98828125 0.35546875 C-11.98637239 0.04425866 -6.00955557 -0.05823526 0 0 Z " fill="#E7E7DE" transform="translate(170,245)"/>
<path d="M0 0 C14.85 0 29.7 0 45 0 C44.67 1.98 44.34 3.96 44 6 C42.97845825 6.029729 42.97845825 6.029729 41.9362793 6.06005859 C38.85296083 6.15526983 35.77032351 6.26496466 32.6875 6.375 C31.0797168 6.42140625 31.0797168 6.42140625 29.43945312 6.46875 C27.89741211 6.52675781 27.89741211 6.52675781 26.32421875 6.5859375 C24.9024231 6.63306885 24.9024231 6.63306885 23.4519043 6.68115234 C20.7469731 6.8489051 20.7469731 6.8489051 18 9 C17.02160786 11.3427333 17.02160786 11.3427333 16.375 14 C15.05063291 18.89873418 15.05063291 18.89873418 14 21 C8.39 21 2.78 21 -3 21 C-3.21435748 13.28313076 -2.4443379 7.3330137 0 0 Z " fill="#DBDCDA" transform="translate(235,213)"/>
<path d="M0 0 C6.27 0 12.54 0 19 0 C18.731875 2.454375 18.46375 4.90875 18.1875 7.4375 C18.11039795 8.19087646 18.0332959 8.94425293 17.95385742 9.72045898 C17.29205655 15.35119095 15.87696716 19.36909851 14 25 C7.4 25 0.8 25 -6 25 C-5.38125 21.803125 -4.7625 18.60625 -4.125 15.3125 C-3.83906982 13.81456909 -3.83906982 13.81456909 -3.54736328 12.28637695 C-3.38993652 11.48675537 -3.23250977 10.68713379 -3.0703125 9.86328125 C-2.91320801 9.05157471 -2.75610352 8.23986816 -2.59423828 7.40356445 C-2 5 -2 5 0 0 Z " fill="#E6E6E5" transform="translate(278,245)"/>
<path d="M0 0 C6.27 0 12.54 0 19 0 C18.47237468 8.01990481 17.09995927 15.23928097 15 23 C8.73 23 2.46 23 -4 23 C-4 15.125 -4 15.125 -3.125 11.81640625 C-2.96257812 11.18420166 -2.80015625 10.55199707 -2.6328125 9.90063477 C-2.42398438 9.12905029 -2.21515625 8.35746582 -2 7.5625 C-1.34 5.066875 -0.68 2.57125 0 0 Z " fill="#E3E3DC" transform="translate(119,247)"/>
<path d="M0 0 C6.27 0 12.54 0 19 0 C19 5.77627096 18.87261457 9.56540342 17.5625 14.9375 C17.29566406 16.06027344 17.02882813 17.18304688 16.75390625 18.33984375 C16 21 16 21 15 22 C13.5112814 22.08669432 12.018555 22.10703494 10.52734375 22.09765625 C9.62822266 22.09443359 8.72910156 22.09121094 7.80273438 22.08789062 C6.85720703 22.07951172 5.91167969 22.07113281 4.9375 22.0625 C3.98810547 22.05798828 3.03871094 22.05347656 2.06054688 22.04882812 C-0.29303065 22.0370011 -2.64648477 22.02052025 -5 22 C-4.3588567 18.7074017 -3.71129104 15.41609917 -3.0625 12.125 C-2.78889648 10.71927734 -2.78889648 10.71927734 -2.50976562 9.28515625 C-2.33251953 8.38925781 -2.15527344 7.49335938 -1.97265625 6.5703125 C-1.72914429 5.32918701 -1.72914429 5.32918701 -1.48071289 4.06298828 C-1 2 -1 2 0 0 Z " fill="#ECECE5" transform="translate(95,248)"/>
<path d="M0 0 C16.17 0 32.34 0 49 0 C48.67 1.98 48.34 3.96 48 6 C32.16 6 16.32 6 0 6 C0 4.02 0 2.04 0 0 Z " fill="#B8B8B8" transform="translate(436,202)"/>
<path d="M0 0 C5.1411629 -0.07449853 10.28200729 -0.12876593 15.42358398 -0.16479492 C17.1703845 -0.17982429 18.91714765 -0.20025354 20.66381836 -0.22631836 C23.18352515 -0.2629608 25.70273039 -0.27978492 28.22265625 -0.29296875 C29.3824575 -0.31619453 29.3824575 -0.31619453 30.56568909 -0.33988953 C35.77708919 -0.34148478 39.33601493 0.65855527 44 3 C44 3.99 44 4.98 44 6 C29.48 6 14.96 6 0 6 C-1 3 -1 3 0 0 Z " fill="#B2B2B2" transform="translate(286,202)"/>
<path d="M0 0 C13.2 0 26.4 0 40 0 C40 1.98 40 3.96 40 6 C26.8 6 13.6 6 0 6 C0 4.02 0 2.04 0 0 Z " fill="#B7B7B7" transform="translate(393,202)"/>
<path d="M0 0 C1.55337248 0.01507027 3.10675906 0.02875454 4.66015625 0.04101562 C8.44045615 0.07384503 12.22007063 0.12549746 16 0.1875 C15.67 2.1675 15.34 4.1475 15 6.1875 C1.8 6.1875 -11.4 6.1875 -25 6.1875 C-25 5.1975 -25 4.2075 -25 3.1875 C-17.01927026 -0.85592823 -8.70673661 -0.14711702 0 0 Z " fill="#7E7E7E" transform="translate(266,201.8125)"/>
<path d="M0 0 C0.66 0 1.32 0 2 0 C2 0.99 2 1.98 2 3 C2.66 3 3.32 3 4 3 C4 7.29 4 11.58 4 16 C8.62 16 13.24 16 18 16 C18 16.33 18 16.66 18 17 C13.05 17 8.1 17 3 17 C2.34 12.71 1.68 8.42 1 4 C-0.65 10.93 -2.3 17.86 -4 25 C-10.93 25 -17.86 25 -25 25 C-23.875 17.125 -23.875 17.125 -23.24609375 14.03515625 C-23.11396484 13.38095703 -22.98183594 12.72675781 -22.84570312 12.05273438 C-22.71099609 11.39595703 -22.57628906 10.73917969 -22.4375 10.0625 C-22.29892578 9.37865234 -22.16035156 8.69480469 -22.01757812 7.99023438 C-21.68016936 6.32646014 -21.34034121 4.66317685 -21 3 C-20.67 3 -20.34 3 -20 3 C-19.80399423 5.22843488 -19.61853431 7.45779893 -19.4375 9.6875 C-19.33308594 10.92886719 -19.22867187 12.17023438 -19.12109375 13.44921875 C-19.01506159 16.55835533 -19.22771475 19.00810972 -20 22 C-17.03 21.67 -14.06 21.34 -11 21 C-10.67 20.01 -10.34 19.02 -10 18 C-8.35 17.67 -6.7 17.34 -5 17 C-4.86722656 16.08476562 -4.73445313 15.16953125 -4.59765625 14.2265625 C-4.42105469 13.03804688 -4.24445312 11.84953125 -4.0625 10.625 C-3.80146484 8.84996094 -3.80146484 8.84996094 -3.53515625 7.0390625 C-3 4 -3 4 -2 2 C-1.34 2 -0.68 2 0 2 C0 1.34 0 0.68 0 0 Z " fill="#B9AB1D" transform="translate(43,245)"/>
<path d="M0 0 C0.33 0 0.66 0 1 0 C1 2.31 1 4.62 1 7 C9.91 7 18.82 7 28 7 C28 5.35 28 3.7 28 2 C28.33 2 28.66 2 29 2 C29 3.98 29 5.96 29 8 C35.6 8.33 42.2 8.66 49 9 C49 9.33 49 9.66 49 10 C41.74 10 34.48 10 27 10 C27.66 12.31 28.32 14.62 29 17 C27.68 17.33 26.36 17.66 25 18 C25.33 15.69 25.66 13.38 26 11 C17.75 11 9.5 11 1 11 C0.67 11.66 0.34 12.32 0 13 C-2.97 12.505 -2.97 12.505 -6 12 C-6.33 12.66 -6.66 13.32 -7 14 C-7 13.01 -7 12.02 -7 11 C-1.555 10.01 -1.555 10.01 4 9 C2.68 8.67 1.36 8.34 0 8 C0 5.36 0 2.72 0 0 Z " fill="#C6BD41" transform="translate(359,229)"/>
<path d="M0 0 C1.084021 0.00523682 2.16804199 0.01047363 3.28491211 0.01586914 C5.03964844 0.02070313 5.03964844 0.02070313 6.82983398 0.02563477 C8.67738281 0.03820312 8.67738281 0.03820312 10.56225586 0.05102539 C12.41560547 0.05779297 12.41560547 0.05779297 14.30639648 0.06469727 C17.37089703 0.07652931 20.43530307 0.09301366 23.49975586 0.11352539 C23.49975586 2.09352539 23.49975586 4.07352539 23.49975586 6.11352539 C14.58975586 6.11352539 5.67975586 6.11352539 -3.50024414 6.11352539 C-3.50024414 0.15893111 -3.50024414 0.15893111 0 0 Z " fill="#B0B1B0" transform="translate(353.500244140625,201.886474609375)"/>
<path d="M0 0 C12.87 0 25.74 0 39 0 C39.495 0.99 39.495 0.99 40 2 C27.46 2 14.92 2 2 2 C2 4.64 2 7.28 2 10 C1.01 11.485 1.01 11.485 0 13 C-0.40268166 15.30143756 -0.7272946 17.61706919 -1 19.9375 C-1.88964435 27.49153373 -1.88964435 27.49153373 -4 31 C-4.66 31 -5.32 31 -6 31 C-5.36814729 23.97699339 -4.05703001 17.29421818 -2.4375 10.4375 C-1.633125 6.993125 -0.82875 3.54875 0 0 Z " fill="#AEA526" transform="translate(183,202)"/>
<path d="M0 0 C7.59 0 15.18 0 23 0 C25 10 25 10 25 15 C24.34 14.67 23.68 14.34 23 14 C22.40234375 11.96875 22.40234375 11.96875 21.9375 9.5 C21.54135157 6.46226779 21.54135157 6.46226779 20 4 C17.51658199 3.78889481 15.05043287 3.62405205 12.5625 3.5 C5.26857585 3.13428793 5.26857585 3.13428793 3 2 C3 2.99 3 3.98 3 5 C2.01 5.495 2.01 5.495 1 6 C-0.42291948 10.4268606 -1.09890422 14.10770706 -0.9375 18.75 C-0.83975582 22.55550669 -1.35193905 24.14824206 -4 27 C-4.71162443 28.64797236 -5.39031953 30.31165408 -6 32 C-6.33 32 -6.66 32 -7 32 C-6.3114312 25.41164854 -4.99487508 19.0743182 -3.5 12.625 C-3.27441406 11.62855469 -3.04882812 10.63210937 -2.81640625 9.60546875 C-1.13375235 2.2675047 -1.13375235 2.2675047 0 0 Z " fill="#B5AB23" transform="translate(33,202)"/>
<path d="M0 0 C0.66 0.33 1.32 0.66 2 1 C4.04055005 1.07065617 6.08334257 1.08421976 8.125 1.0625 C9.22070312 1.05347656 10.31640625 1.04445312 11.4453125 1.03515625 C12.28835937 1.02355469 13.13140625 1.01195312 14 1 C14 1.33 14 1.66 14 2 C13.27554688 1.979375 12.55109375 1.95875 11.8046875 1.9375 C5.97911943 1.96691304 5.97911943 1.96691304 1.0390625 4.671875 C-0.47596698 6.71754932 -1.76687554 8.77446372 -3 11 C-3.5775 11.886875 -4.155 12.77375 -4.75 13.6875 C-6.08127489 16.00364908 -6.08127489 16.00364908 -6.9375 18.6875 C-8 21 -8 21 -10.0625 22 C-10.701875 22.33 -11.34125 22.66 -12 23 C-12.81171228 25.55519921 -12.81171228 25.55519921 -13 28 C-14.32 27.34 -15.64 26.68 -17 26 C-17 25.34 -17 24.68 -17 24 C-17.66 24 -18.32 24 -19 24 C-19.125 20.625 -19.125 20.625 -19 17 C-18.34 16.34 -17.68 15.68 -17 15 C-16.67 17.97 -16.34 20.94 -16 24 C-12.66442368 21.0094833 -10.84916079 18.06815373 -9 14 C-8.34 14 -7.68 14 -7 14 C-6.773125 13.175 -6.54625 12.35 -6.3125 11.5 C-4.72573768 7.26863382 -2.49251763 3.74828987 0 0 Z " fill="#BCB122" transform="translate(76,203)"/>
<path d="M0 0 C0.33 0 0.66 0 1 0 C0.25649358 7.444358 -1.36135185 14.6447428 -3 21.9375 C-3.40992188 23.80245117 -3.40992188 23.80245117 -3.828125 25.70507812 C-4.09109375 26.88392578 -4.3540625 28.06277344 -4.625 29.27734375 C-4.98464844 30.88984009 -4.98464844 30.88984009 -5.3515625 32.53491211 C-6 35 -6 35 -7 36 C-8.4887186 36.08669432 -9.981445 36.10703494 -11.47265625 36.09765625 C-12.37177734 36.09443359 -13.27089844 36.09121094 -14.19726562 36.08789062 C-15.61555664 36.07532227 -15.61555664 36.07532227 -17.0625 36.0625 C-18.01189453 36.05798828 -18.96128906 36.05347656 -19.93945312 36.04882812 C-22.29303065 36.0370011 -24.64648477 36.02052025 -27 36 C-27 35.67 -27 35.34 -27 35 C-21.39 35 -15.78 35 -10 35 C-10 34.34 -10 33.68 -10 33 C-9.34 33 -8.68 33 -8 33 C-7.83564453 31.33324219 -7.83564453 31.33324219 -7.66796875 29.6328125 C-6.56776489 19.08058751 -5.21388712 9.43465287 0 0 Z " fill="#CDC02B" transform="translate(93,234)"/>
<path d="M0 0 C8.25 0 16.5 0 25 0 C25 1.32 25 2.64 25 4 C16.42 4 7.84 4 -1 4 C-0.67 2.68 -0.34 1.36 0 0 Z " fill="#F2F2F2" transform="translate(256,203)"/>
<path d="M0 0 C0.33 0.66 0.66 1.32 1 2 C6.26260185 3.86383815 11.45547862 4.52224079 17 5 C17.33 4.01 17.66 3.02 18 2 C18.495 4.475 18.495 4.475 19 7 C15.32612505 7.85298376 11.9552607 8.10789471 8.1875 8.0625 C7.21167969 8.05347656 6.23585938 8.04445312 5.23046875 8.03515625 C4.12638672 8.01775391 4.12638672 8.01775391 3 8 C3 7.34 3 6.68 3 6 C-7.89 5.67 -18.78 5.34 -30 5 C-30 4.67 -30 4.34 -30 4 C-23.73 4 -17.46 4 -11 4 C-10.67 3.01 -10.34 2.02 -10 1 C-9.67 1.99 -9.34 2.98 -9 4 C-6.36 4 -3.72 4 -1 4 C-0.67 2.68 -0.34 1.36 0 0 Z " fill="#CEC442" transform="translate(338,231)"/>
<path d="M0 0 C7.92 0 15.84 0 24 0 C23.36426587 4.45013893 22.69569983 8.76230597 21.80859375 13.15234375 C21.47504883 14.81040039 21.47504883 14.81040039 21.13476562 16.50195312 C20.90466797 17.63568359 20.67457031 18.76941406 20.4375 19.9375 C20.20353516 21.09830078 19.96957031 22.25910156 19.72851562 23.45507812 C19.15409336 26.30374363 18.57787154 29.15203257 18 32 C17.67 32 17.34 32 17 32 C17.33 24.74 17.66 17.48 18 10 C18.66 10 19.32 10 20 10 C20.66 7.03 21.32 4.06 22 1 C14.74 1 7.48 1 0 1 C0 0.67 0 0.34 0 0 Z " fill="#9A9023" transform="translate(77,202)"/>
<path d="M0 0 C2.20826378 -0.02722517 4.41662638 -0.04649729 6.625 -0.0625 C7.85476563 -0.07410156 9.08453125 -0.08570313 10.3515625 -0.09765625 C13.67723791 -0.00863924 16.74047588 0.36313913 20 1 C19.67 1.66 19.34 2.32 19 3 C15.76248322 4.07917226 13.42248229 4.11425601 10.01953125 4.09765625 C8.85615234 4.09443359 7.69277344 4.09121094 6.49414062 4.08789062 C5.27919922 4.07951172 4.06425781 4.07113281 2.8125 4.0625 C1.58595703 4.05798828 0.35941406 4.05347656 -0.90429688 4.04882812 C-3.93624668 4.03703065 -6.96809906 4.02056921 -10 4 C-10 3.34 -10 2.68 -10 2 C-6.7 1.67 -3.4 1.34 0 1 C0 0.67 0 0.34 0 0 Z " fill="#EEE9C2" transform="translate(396,237)"/>
<path d="M0 0 C0.99 0 1.98 0 3 0 C3.25 6.625 3.25 6.625 1 10 C0.59731834 12.30143756 0.2727054 14.61706919 0 16.9375 C-0.88964435 24.49153373 -0.88964435 24.49153373 -3 28 C-3.66 28 -4.32 28 -5 28 C-4.37922374 21.52432348 -3.33183542 15.28837757 -1.9375 8.9375 C-1.75123047 8.07189453 -1.56496094 7.20628906 -1.37304688 6.31445312 C-0.91933733 4.20877549 -0.46023996 2.10425993 0 0 Z " fill="#B5AB25" transform="translate(182,205)"/>
<path d="M0 0 C6.6 0 13.2 0 20 0 C19.41804665 4.07367344 18.84893516 7.9978771 18 12 C17.34 11.34 16.68 10.68 16 10 C16.03287583 7.27130593 16.56397771 4.7033382 17 2 C12.05 2 7.1 2 2 2 C1.67 3.98 1.34 5.96 1 8 C0.34 8 -0.32 8 -1 8 C-0.67 5.36 -0.34 2.72 0 0 Z " fill="#9F9426" transform="translate(160,202)"/>
<path d="M0 0 C14.85 0 29.7 0 45 0 C44.34 1.32 43.68 2.64 43 4 C42.34 3.67 41.68 3.34 41 3 C41 2.67 41 2.34 41 2 C39.82904785 2.01047363 38.6580957 2.02094727 37.45166016 2.03173828 C33.11689295 2.06787497 28.78213911 2.09087733 24.44726562 2.10986328 C22.56931318 2.11993534 20.69137647 2.13359362 18.81347656 2.15087891 C16.1177991 2.17507453 13.42232854 2.18647083 10.7265625 2.1953125 C9.88380768 2.20563507 9.04105286 2.21595764 8.17276001 2.22659302 C6.11378753 2.22699144 4.05532065 2.12257588 2 2 C1.34 1.34 0.68 0.68 0 0 Z " fill="#DBCD3C" transform="translate(279,241)"/>
<path d="M0 0 C6.27 0 12.54 0 19 0 C22.57446809 9.53191489 22.57446809 9.53191489 23 14 C22.67 14.66 22.34 15.32 22 16 C21.34 16 20.68 16 20 16 C19.71125 15.38125 19.4225 14.7625 19.125 14.125 C18.06279958 11.86674235 18.06279958 11.86674235 16 10 C16.34613077 6.90715407 17.22278559 4.0225005 18 1 C12.06 1.33 6.12 1.66 0 2 C0 1.34 0 0.68 0 0 Z " fill="#B0A01C" transform="translate(128,202)"/>
<path d="M0 0 C0.33 0 0.66 0 1 0 C1 1.98 1 3.96 1 6 C7.6 6.33 14.2 6.66 21 7 C21 7.33 21 7.66 21 8 C13.74 8 6.48 8 -1 8 C-0.34 10.31 0.32 12.62 1 15 C-0.32 15.33 -1.64 15.66 -3 16 C-2.67 13.69 -2.34 11.38 -2 9 C-4.31 9 -6.62 9 -9 9 C-9 8.67 -9 8.34 -9 8 C-5.535 7.505 -5.535 7.505 -2 7 C-4.64 6.67 -7.28 6.34 -10 6 C-10 5.67 -10 5.34 -10 5 C-6.7 5 -3.4 5 0 5 C0 3.35 0 1.7 0 0 Z " fill="#989458" transform="translate(387,231)"/>
<path d="M0 0 C5.94 0 11.88 0 18 0 C18 1.32 18 2.64 18 4 C15.36 4.66 12.72 5.32 10 6 C10 5.01 10 4.02 10 3 C7.36 3 4.72 3 2 3 C1.67 4.32 1.34 5.64 1 7 C0.01 6.67 -0.98 6.34 -2 6 C-1.34 4.02 -0.68 2.04 0 0 Z " fill="#F5F5EF" transform="translate(206,245)"/>
<path d="M0 0 C0.33 0.66 0.66 1.32 1 2 C2.32 1.67 3.64 1.34 5 1 C4.67 3.31 4.34 5.62 4 8 C3.01 8 2.02 8 1 8 C-0.89669269 10.68904511 -0.89669269 10.68904511 -2.625 14 C-3.72871064 16.01182699 -4.84817968 18.01532498 -6 20 C-6.33 20 -6.66 20 -7 20 C-7.125 14.25 -7.125 14.25 -6 12 C-5.34 12 -4.68 12 -4 12 C-4 11.01 -4 10.02 -4 9 C-3.34 8.67 -2.68 8.34 -2 8 C-2 6.02 -2 4.04 -2 2 C-1.34 2 -0.68 2 0 2 C0 1.34 0 0.68 0 0 Z " fill="#B8A71B" transform="translate(68,241)"/>
<path d="M0 0 C0.66 0.33 1.32 0.66 2 1 C1.44890325 8.54385572 0.11104653 15.7557699 -1.5625 23.125 C-1.79646484 24.176875 -2.03042969 25.22875 -2.27148438 26.3125 C-2.84249125 28.87620435 -3.41873819 31.43860496 -4 34 C-4.33 34 -4.66 34 -5 34 C-5.37986936 26.85282831 -4.641433 20.76523728 -2.73046875 13.875 C-1.72797358 9.92935056 -1.39165326 6.04708372 -1 2 C-0.67 1.34 -0.34 0.68 0 0 Z " fill="#9B932B" transform="translate(122,204)"/>
<path d="M0 0 C0.99 0 1.98 0 3 0 C2.34 2.97 1.68 5.94 1 9 C0.34 9 -0.32 9 -1 9 C-1 9.66 -1 10.32 -1 11 C-6.28 11 -11.56 11 -17 11 C-16.67 8.69 -16.34 6.38 -16 4 C-15.34 4.33 -14.68 4.66 -14 5 C-14.33 6.65 -14.66 8.3 -15 10 C-13.24788218 9.74322411 -11.49832064 9.46897047 -9.75 9.1875 C-8.77546875 9.03667969 -7.8009375 8.88585937 -6.796875 8.73046875 C-3.8360617 7.95718371 -2.19653214 7.11364413 0 5 C0.33425735 2.37374861 0.33425735 2.37374861 0 0 Z " fill="#DBCB22" transform="translate(84,258)"/>
<path d="M0 0 C0.33 0 0.66 0 1 0 C1.24942657 2.24784424 1.47383488 4.49847506 1.6875 6.75 C1.81511719 8.00296875 1.94273438 9.2559375 2.07421875 10.546875 C2 14 2 14 0.64453125 16.453125 C-1 18 -1 18 -3 18 C-3 18.99 -3 19.98 -3 21 C3.6 21 10.2 21 17 21 C17 21.33 17 21.66 17 22 C10.07 22 3.14 22 -4 22 C-2.875 14.125 -2.875 14.125 -2.24609375 11.03515625 C-2.11396484 10.38095703 -1.98183594 9.72675781 -1.84570312 9.05273438 C-1.71099609 8.39595703 -1.57628906 7.73917969 -1.4375 7.0625 C-1.29892578 6.37865234 -1.16035156 5.69480469 -1.01757812 4.99023438 C-0.68016936 3.32646014 -0.34034121 1.66317685 0 0 Z " fill="#9C931D" transform="translate(22,248)"/>
<path d="M0 0 C4.66066838 0.62982005 4.66066838 0.62982005 6.375 2.5 C8.47921883 4.44235584 9.86562066 4.48301599 12.6875 4.6875 C13.49574219 4.75324219 14.30398437 4.81898438 15.13671875 4.88671875 C15.75160156 4.92410156 16.36648437 4.96148437 17 5 C17 5.66 17 6.32 17 7 C11.39 7 5.78 7 0 7 C0 4.69 0 2.38 0 0 Z " fill="#F5F4D7" transform="translate(232,227)"/>
<path d="M0 0 C1.14210938 -0.00257813 2.28421875 -0.00515625 3.4609375 -0.0078125 C6.05736152 0.1011732 8.16124883 0.36038757 10.625 1.125 C10.625 1.785 10.625 2.445 10.625 3.125 C7.83365148 3.31925873 5.04216313 3.50569517 2.25 3.6875 C1.4559375 3.74357422 0.661875 3.79964844 -0.15625 3.85742188 C-6.1484375 4.23828125 -6.1484375 4.23828125 -8.375 3.125 C-8.375 2.465 -8.375 1.805 -8.375 1.125 C-5.55170081 -0.28664959 -3.1459921 -0.00706965 0 0 Z " fill="#EFDF07" transform="translate(330.375,235.875)"/>
<path d="M0 0 C1.99554377 3.63310832 1.89879729 4.9554122 1 9 C1.02181 10.52124767 1.06518776 12.04227218 1.125 13.5625 C1.17616832 17.43210406 0.68870597 19.1044705 -2 22 C-2.71162443 23.64797236 -3.39031953 25.31165408 -4 27 C-4.33 27 -4.66 27 -5 27 C-4.32969264 20.90373091 -3.23964287 14.99077746 -1.9375 9 C-1.75123047 8.12988281 -1.56496094 7.25976562 -1.37304688 6.36328125 C-0.9183875 4.24153748 -0.45962195 2.12067429 0 0 Z " fill="#ACA22A" transform="translate(31,207)"/>
<path d="M0 0 C0 1.98 0 3.96 0 6 C-5.61 6 -11.22 6 -17 6 C-17 4.35 -17 2.7 -17 1 C-16.34 1 -15.68 1 -15 1 C-14.67 1.66 -14.34 2.32 -14 3 C-11.64400765 3.46751788 -11.64400765 3.46751788 -8.9375 3.625 C-7.55884766 3.73714844 -7.55884766 3.73714844 -6.15234375 3.8515625 C-5.44207031 3.90054687 -4.73179687 3.94953125 -4 4 C-3.67 3.01 -3.34 2.02 -3 1 C-1 0 -1 0 0 0 Z " fill="#D0D0CF" transform="translate(165,264)"/>
<path d="M0 0 C1.57043101 0.01330874 3.14079971 0.03717648 4.7109375 0.0703125 C5.51273437 0.07933594 6.31453125 0.08835938 7.140625 0.09765625 C9.12252273 0.12125027 11.10426731 0.15712185 13.0859375 0.1953125 C13.0859375 1.1853125 13.0859375 2.1753125 13.0859375 3.1953125 C15.7259375 3.1953125 18.3659375 3.1953125 21.0859375 3.1953125 C21.0859375 3.5253125 21.0859375 3.8553125 21.0859375 4.1953125 C18.1159375 4.1953125 15.1459375 4.1953125 12.0859375 4.1953125 C12.0859375 3.2053125 12.0859375 2.2153125 12.0859375 1.1953125 C11.0959375 1.5253125 10.1059375 1.8553125 9.0859375 2.1953125 C6.85775309 2.26468312 4.62759226 2.27988334 2.3984375 2.2578125 C0.62919922 2.24427734 0.62919922 2.24427734 -1.17578125 2.23046875 C-2.53123047 2.21306641 -2.53123047 2.21306641 -3.9140625 2.1953125 C-3.9140625 3.5153125 -3.9140625 4.8353125 -3.9140625 6.1953125 C-4.9040625 6.5253125 -5.8940625 6.8553125 -6.9140625 7.1953125 C-6.09399063 2.00152401 -5.68427392 0.2836464 0 0 Z " fill="#E2E0B2" transform="translate(338.9140625,240.8046875)"/>
<path d="M0 0 C0.66 0.66 1.32 1.32 2 2 C-8.30660383 3.32378398 -18.63223764 3.09139066 -29 3 C-29 2.67 -29 2.34 -29 2 C-7.47808619 -0.47479912 -7.47808619 -0.47479912 0 0 Z " fill="#DDC821" transform="translate(169,243)"/>
<path d="M0 0 C1 4 1 4 -2 13 C-8.6 13 -15.2 13 -22 13 C-22 12.67 -22 12.34 -22 12 C-16.39 12 -10.78 12 -5 12 C-5 11.34 -5 10.68 -5 10 C-4.34 10 -3.68 10 -3 10 C-2.86722656 9.36191406 -2.73445313 8.72382813 -2.59765625 8.06640625 C-2.42105469 7.24011719 -2.24445313 6.41382813 -2.0625 5.5625 C-1.80146484 4.32693359 -1.80146484 4.32693359 -1.53515625 3.06640625 C-1 1 -1 1 0 0 Z " fill="#938C24" transform="translate(88,257)"/>
<path d="M0 0 C1.32 0.66 2.64 1.32 4 2 C3.34 2 2.68 2 2 2 C1.34 5.96 0.68 9.92 0 14 C2.97 14.33 5.94 14.66 9 15 C9.33 14.34 9.66 13.68 10 13 C10 13.99 10 14.98 10 16 C8.02090602 16.02686553 6.04171029 16.04633375 4.0625 16.0625 C2.96035156 16.07410156 1.85820312 16.08570313 0.72265625 16.09765625 C-2 16 -2 16 -3 15 C-3.26293056 10.96839809 -3.29404844 9.44107266 -1 6 C-0.60986284 4.0103005 -0.26797351 2.00980131 0 0 Z " fill="#948B1A" transform="translate(198,218)"/>
<path d="M0 0 C0.33 0 0.66 0 1 0 C0.67 2.31 0.34 4.62 0 7 C0.66 7 1.32 7 2 7 C2 6.01 2 5.02 2 4 C2.66 4.33 3.32 4.66 4 5 C4 6.32 4 7.64 4 9 C10.93 9.495 10.93 9.495 18 10 C18 10.33 18 10.66 18 11 C11.4 11 4.8 11 -2 11 C-1.34 7.37 -0.68 3.74 0 0 Z " fill="#A1A2A0" transform="translate(92,259)"/>
<path d="M0 0 C2.36556709 2.36556709 2.58244041 3.74303521 3 7 C2.67 7.33 2.34 7.66 2 8 C1.66659529 10.95804573 1.66659529 10.95804573 2 14 C2.99 14.66 3.98 15.32 5 16 C2.36 16 -0.28 16 -3 16 C-2.68954268 14.0830014 -2.37655329 12.16641277 -2.0625 10.25 C-1.88847656 9.18265625 -1.71445313 8.1153125 -1.53515625 7.015625 C-1.11295829 4.63652407 -0.62797116 2.33084789 0 0 Z " fill="#BCB32B" transform="translate(122,231)"/>
<path d="M0 0 C1.47906892 -0.02689216 2.95827483 -0.04634621 4.4375 -0.0625 C5.26121094 -0.07410156 6.08492187 -0.08570313 6.93359375 -0.09765625 C9 0 9 0 10 1 C10.16796875 2.92578125 10.16796875 2.92578125 10.1875 5.3125 C10.20167969 6.09238281 10.21585938 6.87226563 10.23046875 7.67578125 C9.97984413 10.2032668 9.26373772 11.81718031 8 14 C7.34 13.67 6.68 13.34 6 13 C6.14107747 11.54119891 6.28802415 10.08296449 6.4375 8.625 C6.51871094 7.81289062 6.59992188 7.00078125 6.68359375 6.1640625 C7 4 7 4 8 2 C5.36 1.67 2.72 1.34 0 1 C0 0.67 0 0.34 0 0 Z " fill="#B9AD27" transform="translate(202,218)"/>
<path d="M0 0 C1.58206057 0.00667536 3.16410534 0.0186375 4.74609375 0.03515625 C5.55240234 0.03966797 6.35871094 0.04417969 7.18945312 0.04882812 C9.18753131 0.06065107 11.18557158 0.07858711 13.18359375 0.09765625 C12.85359375 1.08765625 12.52359375 2.07765625 12.18359375 3.09765625 C6.90359375 3.09765625 1.62359375 3.09765625 -3.81640625 3.09765625 C-3.81640625 4.74765625 -3.81640625 6.39765625 -3.81640625 8.09765625 C-4.47640625 8.09765625 -5.13640625 8.09765625 -5.81640625 8.09765625 C-4.80143239 0.12286163 -4.80143239 0.12286163 0 0 Z " fill="#D0C22A" transform="translate(132.81640625,202.90234375)"/>
<path d="M0 0 C1.18613892 0.00785522 1.18613892 0.00785522 2.39624023 0.01586914 C3.67724609 0.02070313 3.67724609 0.02070313 4.98413086 0.02563477 C5.88196289 0.03401367 6.77979492 0.04239258 7.70483398 0.05102539 C8.6065332 0.05553711 9.50823242 0.06004883 10.43725586 0.06469727 C12.67234712 0.07652315 14.90730835 0.09300319 17.14233398 0.11352539 C17.47233398 0.77352539 17.80233398 1.43352539 18.14233398 2.11352539 C12.20233398 2.11352539 6.26233398 2.11352539 0.14233398 2.11352539 C-0.18766602 2.77352539 -0.51766602 3.43352539 -0.85766602 4.11352539 C-1.51766602 3.12352539 -2.17766602 2.13352539 -2.85766602 1.11352539 C-1.85766602 0.11352539 -1.85766602 0.11352539 0 0 Z " fill="#DDD148" transform="translate(205.857666015625,242.886474609375)"/>
<path d="M0 0 C6.93 0 13.86 0 21 0 C20.67 0.99 20.34 1.98 20 3 C20 2.34 20 1.68 20 1 C13.73 1 7.46 1 1 1 C1.33 3.64 1.66 6.28 2 9 C1.01 9.33 0.02 9.66 -1 10 C-1.33 10.66 -1.66 11.32 -2 12 C-1.34 8.04 -0.68 4.08 0 0 Z " fill="#7A721A" transform="translate(104,202)"/>
<path d="M0 0 C2.17310769 3.25966153 2.23333014 3.46027275 1.5390625 7.01171875 C1.39726562 7.76904297 1.25546875 8.52636719 1.109375 9.30664062 C0.94953125 10.09232422 0.7896875 10.87800781 0.625 11.6875 C0.39683594 12.88342773 0.39683594 12.88342773 0.1640625 14.10351562 C-0.21296886 16.07114803 -0.60505365 18.0358851 -1 20 C-0.01 20.33 0.98 20.66 2 21 C0.35 21 -1.3 21 -3 21 C-2.53752467 13.80729161 -1.74922933 6.9969173 0 0 Z " fill="#B0A42E" transform="translate(175,213)"/>
<path d="M0 0 C0.66 0.33 1.32 0.66 2 1 C2.35050464 6.841744 2.16727335 10.8531808 -1 16 C-1.99 15.34 -2.98 14.68 -4 14 C-3.28575475 10.12266867 -2.83959027 7.83959027 0 5 C0.16687448 2.41645782 0.16687448 2.41645782 0 0 Z " fill="#E5D013" transform="translate(92,224)"/>
<path d="M0 0 C0.33 0 0.66 0 1 0 C1.05472088 1.39538254 1.09311538 2.79140897 1.125 4.1875 C1.14820313 4.96480469 1.17140625 5.74210937 1.1953125 6.54296875 C1 9 1 9 -1 14 C5.27 13.67 11.54 13.34 18 13 C18 13.66 18 14.32 18 15 C11.4 15 4.8 15 -2 15 C-2 8.97206487 -1.55700564 5.5468326 0 0 Z " fill="#80807F" transform="translate(438,255)"/>
<path d="M0 0 C6.76594019 -0.11381955 13.28837062 0.11978631 20 1 C19.67 1.66 19.34 2.32 19 3 C13.66645094 4.11115605 8.43087408 4.11083416 3 4 C3 3.67 3 3.34 3 3 C5.31 3 7.62 3 10 3 C10 2.34 10 1.68 10 1 C6.7 1 3.4 1 0 1 C0 0.67 0 0.34 0 0 Z " fill="#E9E164" transform="translate(366,236)"/>
<path d="M0 0 C0.33 0.66 0.66 1.32 1 2 C4.04581269 2.46954261 4.04581269 2.46954261 7.5625 2.625 C8.76003906 2.69976562 9.95757812 2.77453125 11.19140625 2.8515625 C12.11824219 2.90054687 13.04507813 2.94953125 14 3 C14 3.66 14 4.32 14 5 C9.38 5 4.76 5 0 5 C0 3.35 0 1.7 0 0 Z " fill="#E1D935" transform="translate(47,256)"/>
<path d="M0 0 C5.94 0 11.88 0 18 0 C17.67 1.98 17.34 3.96 17 6 C16.34 5.67 15.68 5.34 15 5 C14.01 4.67 13.02 4.34 12 4 C12 3.01 12 2.02 12 1 C8.04 1 4.08 1 0 1 C0 0.67 0 0.34 0 0 Z " fill="#FBF8D9" transform="translate(229,244)"/>
<path d="M0 0 C0.66 0 1.32 0 2 0 C1.67 3.3 1.34 6.6 1 10 C3.97 10 6.94 10 10 10 C10.33 7.03 10.66 4.06 11 1 C11.33 1 11.66 1 12 1 C12.125 8.75 12.125 8.75 11 11 C7.37 11 3.74 11 0 11 C-0.87890625 3.28515625 -0.87890625 3.28515625 -1 1 C-0.67 0.67 -0.34 0.34 0 0 Z " fill="#9E9D9E" transform="translate(300,219)"/>
<path d="M0 0 C-0.55105909 3.9492568 -1.38935371 7.34920174 -3 11 C-4.4606285 8.35261084 -5 7.10551666 -5 4 C-4.67 3.34 -4.34 2.68 -4 2 C-4.66 1.67 -5.32 1.34 -6 1 C-4 0 -4 0 0 0 Z " fill="#D1D1D1" transform="translate(224,249)"/>
<path d="M0 0 C0.66 0 1.32 0 2 0 C1.88490339 1.41750563 1.75746342 2.83401169 1.625 4.25 C1.55539063 5.03890625 1.48578125 5.8278125 1.4140625 6.640625 C0.98492887 9.085877 0.21399362 10.84836903 -1 13 C-1.66 13 -2.32 13 -3 13 C-2.88490339 11.58249437 -2.75746342 10.16598831 -2.625 8.75 C-2.55539063 7.96109375 -2.48578125 7.1721875 -2.4140625 6.359375 C-1.98492887 3.914123 -1.21399362 2.15163097 0 0 Z " fill="#BDB120" transform="translate(180,220)"/>
<path d="M0 0 C-0.99 0.33 -1.98 0.66 -3 1 C-3 1.66 -3 2.32 -3 3 C-6.3 3.33 -9.6 3.66 -13 4 C-13 3.34 -13 2.68 -13 2 C-14.65 2 -16.3 2 -18 2 C-18 1.67 -18 1.34 -18 1 C-11.96445452 0.30739642 -6.07593562 -0.11251733 0 0 Z " fill="#D2C61F" transform="translate(337,239)"/>
<path d="M0 0 C0.66 0.33 1.32 0.66 2 1 C4.04055005 1.07065617 6.08334257 1.08421976 8.125 1.0625 C9.22070312 1.05347656 10.31640625 1.04445312 11.4453125 1.03515625 C12.70988281 1.01775391 12.70988281 1.01775391 14 1 C14 1.33 14 1.66 14 2 C12.89591797 2.00386719 12.89591797 2.00386719 11.76953125 2.0078125 C6.11245105 2.07032942 6.11245105 2.07032942 1.15625 4.40234375 C-0.3625108 6.20671218 -0.3625108 6.20671218 -2 9 C-2.33 8.34 -2.66 7.68 -3 7 C-2.06421005 4.64018187 -1.06652192 2.30368736 0 0 Z " fill="#C2B421" transform="translate(76,203)"/>
<path d="M0 0 C2.50014115 3.74095194 1.90042304 6.44209421 1.125 10.75 C0.92132813 11.92046875 0.71765625 13.0909375 0.5078125 14.296875 C0.34023438 15.18890625 0.17265625 16.0809375 0 17 C-2.50014115 13.25904806 -1.90042304 10.55790579 -1.125 6.25 C-0.92132813 5.07953125 -0.71765625 3.9090625 -0.5078125 2.703125 C-0.34023438 1.81109375 -0.17265625 0.9190625 0 0 Z " fill="#B3A524" transform="translate(40,249)"/>
<path d="M0 0 C1 3 1 3 0.00390625 5.26171875 C-0.47175781 6.06222656 -0.94742188 6.86273438 -1.4375 7.6875 C-1.91058594 8.49574219 -2.38367187 9.30398438 -2.87109375 10.13671875 C-3.24363281 10.75160156 -3.61617187 11.36648438 -4 12 C-4.33 12 -4.66 12 -5 12 C-5.125 6.25 -5.125 6.25 -4 4 C-3.34 4 -2.68 4 -2 4 C-2 3.01 -2 2.02 -2 1 C-1.34 0.67 -0.68 0.34 0 0 Z " fill="#BFB32B" transform="translate(66,249)"/>
<path d="M0 0 C2.56220131 3.84330196 1.91906612 5.23190677 1.125 9.6875 C0.92132813 10.86699219 0.71765625 12.04648438 0.5078125 13.26171875 C0.34023437 14.16535156 0.17265625 15.06898438 0 16 C-0.99 16.33 -1.98 16.66 -3 17 C-2.01 11.39 -1.02 5.78 0 0 Z " fill="#ACA12F" transform="translate(98,230)"/>
<path d="M0 0 C0.33 0.66 0.66 1.32 1 2 C1.66 2 2.32 2 3 2 C4.23104155 5.68400584 3.90767252 8.91474976 3.5625 12.75 C3.46066406 13.92046875 3.35882813 15.0909375 3.25390625 16.296875 C3.17011719 17.18890625 3.08632812 18.0809375 3 19 C2.67 19 2.34 19 2 19 C1.93941406 18.04738281 1.87882813 17.09476563 1.81640625 16.11328125 C1.73261719 14.85902344 1.64882812 13.60476562 1.5625 12.3125 C1.48128906 11.07113281 1.40007812 9.82976562 1.31640625 8.55078125 C1.05508683 5.61819663 0.65201621 2.86558383 0 0 Z " fill="#A1952E" transform="translate(227,205)"/>
<path d="M0 0 C1.9078584 3.1749094 2.1609041 5.10585211 1.625 8.75 C1.51414063 9.54921875 1.40328125 10.3484375 1.2890625 11.171875 C1.19367188 11.77515625 1.09828125 12.3784375 1 13 C0.01 13 -0.98 13 -2 13 C-1.39174965 8.65535464 -0.73832608 4.32448133 0 0 Z " fill="#AF9F20" transform="translate(158,210)"/>
<path d="M0 0 C5.94 0 11.88 0 18 0 C17.67 1.32 17.34 2.64 17 4 C17 3.34 17 2.68 17 2 C16.01 2.33 15.02 2.66 14 3 C13.01 2.67 12.02 2.34 11 2 C9.10787263 1.77820215 7.21115528 1.59385985 5.3125 1.4375 C4.31863281 1.35371094 3.32476562 1.26992187 2.30078125 1.18359375 C1.16189453 1.09271484 1.16189453 1.09271484 0 1 C0 0.67 0 0.34 0 0 Z " fill="#F9F8D4" transform="translate(206,245)"/>
<path d="M0 0 C-4.81143831 3.20762554 -9.12415752 3.119958 -14.8125 3.0625 C-15.97394531 3.05347656 -17.13539063 3.04445312 -18.33203125 3.03515625 C-19.21246094 3.02355469 -20.09289062 3.01195312 -21 3 C-21 2.67 -21 2.34 -21 2 C-13.94546999 0.79556805 -7.16562789 -0.28100502 0 0 Z " fill="#F8F6D9" transform="translate(320,242)"/>
<path d="M0 0 C1.11017502 3.33052505 0.87254667 4.74412218 0.1875 8.125 C-0.06966797 9.45917969 -0.06966797 9.45917969 -0.33203125 10.8203125 C-0.66267578 11.89925781 -0.66267578 11.89925781 -1 13 C-1.99 13.495 -1.99 13.495 -3 14 C-3.08082094 12.04233719 -3.13910778 10.08373272 -3.1875 8.125 C-3.22230469 7.03445312 -3.25710937 5.94390625 -3.29296875 4.8203125 C-3.19628906 3.88960937 -3.09960938 2.95890625 -3 2 C-2.01 1.34 -1.02 0.68 0 0 Z " fill="#E4D623" transform="translate(228,221)"/>
<path d="M0 0 C0.99 0.33 1.98 0.66 3 1 C2.88648483 2.81325551 2.75887039 4.62563357 2.625 6.4375 C2.55539063 7.44683594 2.48578125 8.45617187 2.4140625 9.49609375 C2.27742188 10.32238281 2.14078125 11.14867187 2 12 C1.01 12.495 1.01 12.495 0 13 C0.33 9.7 0.66 6.4 1 3 C0.01 2.67 -0.98 2.34 -2 2 C-1.34 1.34 -0.68 0.68 0 0 Z " fill="#D9CC26" transform="translate(71,240)"/>
<path d="M0 0 C2.08326131 -0.02709444 4.16662441 -0.04643873 6.25 -0.0625 C7.41015625 -0.07410156 8.5703125 -0.08570313 9.765625 -0.09765625 C12.40977128 -0.01782092 14.49826091 0.21356222 17 1 C17 1.66 17 2.32 17 3 C14.69 3 12.38 3 10 3 C10 2.67 10 2.34 10 2 C6.7 1.67 3.4 1.34 0 1 C0 0.67 0 0.34 0 0 Z " fill="#EAD914" transform="translate(324,236)"/>
<path d="M0 0 C1.93166016 0.01740234 1.93166016 0.01740234 3.90234375 0.03515625 C5.19269531 0.04417969 6.48304688 0.05320313 7.8125 0.0625 C8.81152344 0.07410156 9.81054688 0.08570313 10.83984375 0.09765625 C10.83984375 0.42765625 10.83984375 0.75765625 10.83984375 1.09765625 C6.54984375 1.09765625 2.25984375 1.09765625 -2.16015625 1.09765625 C-2.16015625 2.41765625 -2.16015625 3.73765625 -2.16015625 5.09765625 C-3.15015625 5.42765625 -4.14015625 5.75765625 -5.16015625 6.09765625 C-4.08838165 0.12634059 -4.08838165 0.12634059 0 0 Z " fill="#D9D9C9" transform="translate(337.16015625,241.90234375)"/>
<path d="M0 0 C0.33 0 0.66 0 1 0 C0.43393721 4.69023454 -0.18537505 9.34500026 -1 14 C-2.49356111 11.62787353 -3.04005633 10.39054922 -2.75 7.5625 C-1.98785409 4.95850149 -1.06844502 2.49303838 0 0 Z " fill="#A49826" transform="translate(93,234)"/>
<path d="M0 0 C0.99 0 1.98 0 3 0 C3 1.32 3 2.64 3 4 C3.66 4.33 4.32 4.66 5 5 C5 5.66 5 6.32 5 7 C3.02 7 1.04 7 -1 7 C-0.67 4.69 -0.34 2.38 0 0 Z " fill="#F6F6F5" transform="translate(297,226)"/>
<path d="M0 0 C0.66 0.33 1.32 0.66 2 1 C1.67 4.3 1.34 7.6 1 11 C0.34 11 -0.32 11 -1 11 C-1.0270043 9.54176788 -1.04639787 8.08339325 -1.0625 6.625 C-1.07410156 5.81289062 -1.08570312 5.00078125 -1.09765625 4.1640625 C-1 2 -1 2 0 0 Z " fill="#B5AA27" transform="translate(122,204)"/>
<path d="M0 0 C1.13112345 4.24171294 1.08351471 6.09340991 -1 10 C-1.66 10 -2.32 10 -3 10 C-3.33 11.32 -3.66 12.64 -4 14 C-4.33 13.34 -4.66 12.68 -5 12 C-4.26821134 9.92803369 -3.44100997 7.8891448 -2.5625 5.875 C-2.08941406 4.77929688 -1.61632812 3.68359375 -1.12890625 2.5546875 C-0.75636719 1.71164063 -0.38382812 0.86859375 0 0 Z " fill="#909190" transform="translate(330,249)"/>
<path d="M0 0 C0.33 0.99 0.66 1.98 1 3 C1.66 3 2.32 3 3 3 C3 4.65 3 6.3 3 8 C1.02 8.99 1.02 8.99 -1 10 C-0.67 6.7 -0.34 3.4 0 0 Z " fill="#ACA21A" transform="translate(24,238)"/>
<path d="M0 0 C0.33 0 0.66 0 1 0 C1 1.98 1 3.96 1 6 C1.99 6.33 2.98 6.66 4 7 C4 7.99 4 8.98 4 10 C2.35 9.67 0.7 9.34 -1 9 C-1.125 2.25 -1.125 2.25 0 0 Z " fill="#DDCF15" transform="translate(124,228)"/>
<path d="M0 0 C-0.33 2.64 -0.66 5.28 -1 8 C-1.33 8 -1.66 8 -2 8 C-2 6.02 -2 4.04 -2 2 C-3.65 2 -5.3 2 -7 2 C-7 1.34 -7 0.68 -7 0 C-3.86650268 -1.04449911 -3.01031744 -0.93423645 0 0 Z " fill="#BEBDBE" transform="translate(138,250)"/>
<path d="M0 0 C1.4540625 0.0309375 1.4540625 0.0309375 2.9375 0.0625 C1.9475 0.3925 0.9575 0.7225 -0.0625 1.0625 C-0.0625 2.0525 -0.0625 3.0425 -0.0625 4.0625 C-2.0425 5.0525 -2.0425 5.0525 -4.0625 6.0625 C-4.105221 4.39638095 -4.10313832 2.72867115 -4.0625 1.0625 C-3.0625 0.0625 -3.0625 0.0625 0 0 Z " fill="#C7BB28" transform="translate(36.0625,202.9375)"/>
<path d="M0 0 C0.66 0.66 1.32 1.32 2 2 C2.99 2 3.98 2 5 2 C5.33 2.66 5.66 3.32 6 4 C4.68 4.33 3.36 4.66 2 5 C1.67 6.32 1.34 7.64 1 9 C0.67 6.03 0.34 3.06 0 0 Z " fill="#B2B2B3" transform="translate(226,254)"/>
<path d="M0 0 C0.33 0 0.66 0 1 0 C1.05447047 1.41623216 1.09300508 2.83308191 1.125 4.25 C1.14820312 5.03890625 1.17140625 5.8278125 1.1953125 6.640625 C0.9828378 9.20731941 0.28654105 10.7916067 -1 13 C-2.51403812 8.15507803 -1.36602172 4.7408989 0 0 Z " fill="#BAAF32" transform="translate(98,206)"/>
<path d="M0 0 C1.32 0.33 2.64 0.66 4 1 C3.34 2.65 2.68 4.3 2 6 C1.34 6 0.68 6 0 6 C0 4.02 0 2.04 0 0 Z " fill="#F8F7F7" transform="translate(228,247)"/>
<path d="M0 0 C3.3 0 6.6 0 10 0 C9.34 1.32 8.68 2.64 8 4 C7.34 3.67 6.68 3.34 6 3 C6 2.67 6 2.34 6 2 C3.03 1.505 3.03 1.505 0 1 C0 0.67 0 0.34 0 0 Z " fill="#CCC772" transform="translate(314,241)"/>
<path d="M0 0 C2 3 2 3 1.625 5.6875 C1.41875 6.450625 1.2125 7.21375 1 8 C0.34 8 -0.32 8 -1 8 C-1.33 8.66 -1.66 9.32 -2 10 C-1.34 6.7 -0.68 3.4 0 0 Z " fill="#ACA524" transform="translate(104,204)"/>
<path d="M0 0 C0.66 0.33 1.32 0.66 2 1 C1.67 2.65 1.34 4.3 1 6 C0.01 5.67 -0.98 5.34 -2 5 C-2 4.01 -2 3.02 -2 2 C-1.34 2 -0.68 2 0 2 C0 1.34 0 0.68 0 0 Z " fill="#F5F4EE" transform="translate(236,217)"/>
<path d="M0 0 C1 2 1 2 0.25 5.0625 C-0.1625 6.031875 -0.575 7.00125 -1 8 C-1.99 8.33 -2.98 8.66 -4 9 C-2.94124926 5.59687262 -1.99097846 2.98646769 0 0 Z " fill="#948D28" transform="translate(73,208)"/>
</svg>
